<?xml version="1.0" encoding="utf-8"?>
<svg id="master-artboard" viewBox="0 0 1400 980" version="1.1" xmlns="http://www.w3.org/2000/svg" x="0px" y="0px" style="enable-background:new 0 0 336 235.2;" width="1400px" height="980px"><rect id="ee-background" x="0" y="0" width="1400" height="980" style="fill: white; fill-opacity: 0; pointer-events: none;"/><defs><style id="ee-google-fonts">@import url(https://fonts.googleapis.com/css?family=Audiowide:400);</style></defs>





















































































































































<g transform="matrix(2.4512283071534258, 0, 0, 2.4512283071534258, -1614.5721183833634, 130.15977890985266)"><path class="st1" d="M1016.7,124.4l-5-12c0,0,11.8-26.5,10.7-27.5l-15.5-15.2c-1.1-1-27.6,11-27.6,11L967,75.8&#10;&#9;c0,0-10.8-26.9-12.3-26.9h-21.9c-1.5,0-11.5,26.9-11.5,26.9L909,80.8c0,0-27.1-11.5-28.1-10.5l-15.5,15.2c-1.1,1,11.3,27,11.3,27&#10;&#9;l-5,12c0,0-27.4,10.6-27.4,12v21.5c0,1.5,27.5,11.3,27.5,11.3l5,12c0,0-11.7,26.5-10.7,27.5l15.5,15.2c1.1,1,27.6-11.1,27.6-11.1&#10;&#9;l12.2,5c0,0,10.8,26.8,12.3,26.8h21.9c1.5,0,11.5-26.9,11.5-26.9l12.2-5c0,0,27,11.5,28.1,10.5l15.5-15.2c1.1-1.1-11.3-27-11.3-27&#10;&#9;l5-12c0,0,27.4-10.6,27.4-12v-21.5C1044.2,134.2,1016.7,124.4,1016.7,124.4z M976.3,146.9c0,17.3-14.4,31.4-32.1,31.4&#10;&#9;c-17.7,0-32.1-14.1-32.1-31.4c0-17.3,14.4-31.4,32.1-31.4C961.9,115.5,976.3,129.6,976.3,146.9z" style="fill: rgb(51, 51, 51); opacity: 1;" transform="matrix(1, 0, 0, 1, 0, 2.842170943040401e-14)"/></g></svg>