<?xml version="1.0" encoding="utf-8"?>
<svg id="master-artboard" viewBox="0 0 1400 980" version="1.1" xmlns="http://www.w3.org/2000/svg" x="0px" y="0px" style="enable-background:new 0 0 1400 980;" width="1400px" height="980px"><rect id="ee-background" x="0" y="0" width="1400" height="980" style="fill: white; fill-opacity: 0; pointer-events: none;"/><defs><style id="ee-google-fonts">@import url(https://fonts.googleapis.com/css?family=Allerta:400);</style><path id="text-path-0" d="M 584.3351440429688 359.5133972167969 A 100 -1 0 0 0 1010.8704223632812 359.5133972167969 A 100 -1 0 0 0 584.3351440429688 359.5133972167969 Z" style="fill: none; stroke: red; stroke-width: 2;"/></defs>








































<path d="M 616.8163452148438 342.467041015625 C 616.7512817382812 345.3062744140625 616.3923950195312 347.7253723144531 615.73974609375 349.7242736816406 C 615.080322265625 351.72967529296875 614.2684936523438 353.4015197753906 613.30419921875 354.7397766113281 C 612.3333129882812 356.077880859375 611.2523803710938 357.1234130859375 610.0615234375 357.8763122558594 C 608.87060546875 358.62921142578125 607.72412109375 359.18975830078125 606.6220703125 359.5579528808594 C 605.5201416015625 359.9194641113281 604.5147094726562 360.146484375 603.6056518554688 360.239013671875 C 602.69677734375 360.32489013671875 602.0257568359375 360.36285400390625 601.592529296875 360.3529357910156 L 588.5159912109375 360.05322265625 L 589.3075561523438 325.5122985839844 L 599.71484375 325.7508239746094 C 602.6207275390625 325.8174133300781 605.1627807617188 326.3391418457031 607.3410034179688 327.3159484863281 C 609.5260009765625 328.2862854003906 611.3240966796875 329.5544738769531 612.7352294921875 331.12054443359375 C 614.1531982421875 332.68011474609375 615.19970703125 334.4445495605469 615.874755859375 336.41387939453125 C 616.5498046875 338.3831787109375 616.8637084960938 340.4009094238281 616.8163452148438 342.467041015625 M 599.8076782226562 356.1809387207031 C 603.6199951171875 356.268310546875 606.3971557617188 355.1149597167969 608.1390991210938 352.7209167480469 C 609.8812255859375 350.3201904296875 610.8052978515625 346.80712890625 610.9113159179688 342.1816711425781 C 610.9441528320312 340.74871826171875 610.8067626953125 339.3251953125 610.4990844726562 337.9111022949219 C 610.1846923828125 336.4968566894531 609.5507202148438 335.2086486816406 608.5971069335938 334.0465087890625 C 607.6368408203125 332.8841857910156 606.3216552734375 331.93048095703125 604.651611328125 331.18536376953125 C 602.9814453125 330.4468994140625 600.8033447265625 330.046875 598.1173706054688 329.9853210449219 L 594.8382568359375 329.9101867675781 L 594.2391357421875 356.0533142089844 L 599.8076782226562 356.1809387207031 ZM 629.9661254882812 360.83154296875 L 624.2466430664062 360.7555236816406 L 624.5980834960938 334.3178405761719 L 630.317626953125 334.3938903808594 L 629.9661254882812 360.83154296875 M 630.9497680664062 325.9615478515625 C 630.937255859375 326.9014587402344 630.5968017578125 327.68701171875 629.9283447265625 328.31817626953125 C 629.2665405273438 328.9494323730469 628.4656982421875 329.2588195800781 627.5257568359375 329.246337890625 C 626.592529296875 329.2339172363281 625.810302734375 328.8968200683594 625.1790161132812 328.23504638671875 C 624.5478515625 327.56658935546875 624.23828125 326.7790832519531 624.2503662109375 325.8724670410156 C 624.2627563476562 324.9392395019531 624.5999755859375 324.14697265625 625.2620239257812 323.4957275390625 C 625.9240112304688 322.85113525390625 626.708251953125 322.53485107421875 627.6148681640625 322.5469055175781 C 628.5547485351562 322.5594177246094 629.3470458984375 322.8966369628906 629.9916381835938 323.55859375 C 630.6427612304688 324.2273254394531 630.962158203125 325.0282897949219 630.9497680664062 325.9615478515625 ZM 643.5465698242188 364.4101867675781 C 643.8547973632812 364.94647216796875 644.2505493164062 365.386962890625 644.7339477539062 365.7315979003906 C 645.2106323242188 366.08282470703125 645.7080688476562 366.354248046875 646.2262573242188 366.5458984375 C 646.73779296875 366.7374572753906 647.2498168945312 366.87567138671875 647.7623901367188 366.9606018066406 C 648.2815551757812 367.0455627441406 648.7445068359375 367.0899963378906 649.1511840820312 367.0938720703125 C 651.0844116210938 367.1123352050781 652.60302734375 366.5635070800781 653.7070922851562 365.44732666015625 C 654.8111572265625 364.3311767578125 655.3761596679688 362.41314697265625 655.4021606445312 359.6932678222656 L 655.413818359375 358.47332763671875 L 655.4146728515625 358.3833312988281 L 655.4669189453125 358.1538391113281 C 655.4672241210938 358.1204833984375 655.4608764648438 358.08709716796875 655.4478759765625 358.05364990234375 C 655.4281005859375 358.02679443359375 655.4183959960938 357.9966735839844 655.418701171875 357.9633483886719 C 655.3214721679688 358.3691101074219 655.0443115234375 358.77313232421875 654.5870971679688 359.17547607421875 C 654.1298828125 359.5777893066406 653.556396484375 359.93896484375 652.8666381835938 360.2590637207031 C 652.1768798828125 360.57916259765625 651.3944702148438 360.828369140625 650.5194091796875 361.00665283203125 C 649.6443481445312 361.1849670410156 648.73681640625 361.2696533203125 647.796875 361.2606506347656 C 646.0502319335938 361.24395751953125 644.5239868164062 360.849365234375 643.2179565429688 360.07684326171875 C 641.9119873046875 359.29766845703125 640.8284912109375 358.263916015625 639.9674682617188 356.9756164550781 C 639.0997924804688 355.68060302734375 638.4705200195312 354.20452880859375 638.0797119140625 352.5473937988281 C 637.6889038085938 350.8835754394531 637.5021362304688 349.14837646484375 637.5194091796875 347.341796875 C 637.542724609375 344.90191650390625 637.89892578125 342.8585510253906 638.5880737304688 341.21173095703125 C 639.2772216796875 339.5582275390625 640.1500854492188 338.21319580078125 641.2067260742188 337.17657470703125 C 642.2633666992188 336.13995361328125 643.4437255859375 335.4078674316406 644.7478637695312 334.9803161621094 C 646.0452880859375 334.5593566894531 647.3206787109375 334.3548889160156 648.5739135742188 334.3668518066406 C 650.1005249023438 334.3814392089844 651.49462890625 334.6581115722656 652.7561645507812 335.1968688964844 C 654.0177001953125 335.7422790527344 654.970947265625 336.45477294921875 655.6159057617188 337.33428955078125 L 656.2514038085938 334.6702575683594 L 661.3211669921875 334.7187194824219 L 661.0184326171875 361.1570129394531 C 660.87353515625 363.0623779296875 660.4746704101562 364.6853332519531 659.8218383789062 366.02581787109375 C 659.1690673828125 367.359619140625 658.3385620117188 368.4584045410156 657.3302612304688 369.3221435546875 C 656.3218383789062 370.1925354003906 655.1592407226562 370.8081359863281 653.8424072265625 371.16888427734375 C 652.5255737304688 371.5296630859375 651.1171875 371.702880859375 649.6172485351562 371.68853759765625 C 647.8706665039062 371.6718444824219 646.14697265625 371.3520202636719 644.4461669921875 370.72906494140625 C 642.7521362304688 370.0995178222656 641.3486328125 369.0627136230469 640.2357177734375 367.6186828613281 L 643.5465698242188 364.4101867675781 M 655.8968505859375 347.69744873046875 C 655.9087524414062 346.4508361816406 655.76318359375 345.292724609375 655.4600219726562 344.2231140136719 C 655.1568603515625 343.1601867675781 654.745849609375 342.21954345703125 654.2269287109375 341.4012145996094 C 653.701416015625 340.58282470703125 653.0509033203125 339.9365539550781 652.275390625 339.46246337890625 C 651.4932250976562 338.9883117675781 650.6521606445312 338.7469177246094 649.752197265625 338.7383117675781 C 648.812255859375 338.7293395996094 647.9566650390625 338.961181640625 647.1854248046875 339.4338073730469 C 646.4141235351562 339.91314697265625 645.7612915039062 340.5569152832031 645.2268676757812 341.36517333984375 C 644.685791015625 342.1733703613281 644.27001953125 343.1227722167969 643.9796142578125 344.21337890625 C 643.6824951171875 345.3039245605469 643.5281372070312 346.45916748046875 643.5164794921875 347.67913818359375 C 643.5045166015625 348.92572021484375 643.6432495117188 350.10711669921875 643.9326171875 351.2232666015625 C 644.2219848632812 352.332763671875 644.6361694335938 353.2967529296875 645.175048828125 354.1152648925781 C 645.7138671875 354.9338073730469 646.3610229492188 355.586669921875 647.1163940429688 356.07391357421875 C 647.8783569335938 356.5679016113281 648.7293090820312 356.8193664550781 649.6693115234375 356.8283386230469 C 650.6359252929688 356.83758544921875 651.4982299804688 356.60247802734375 652.2561645507812 356.123046875 C 653.0073852539062 355.65020751953125 653.6469116210938 355.0029602050781 654.1748046875 354.1813049316406 C 654.6961059570312 353.3529052734375 655.1087036132812 352.380126953125 655.4127807617188 351.26300048828125 C 655.7235107421875 350.1392517089844 655.8848876953125 348.95074462890625 655.8968505859375 347.69744873046875 ZM 676.0108642578125 361.2648010253906 L 670.291015625 361.2237243652344 L 670.4808349609375 334.784423828125 L 676.20068359375 334.82550048828125 L 676.0108642578125 361.2648010253906 M 676.7813110351562 326.3894348144531 C 676.7745361328125 327.32940673828125 676.4389038085938 328.1170349121094 675.7742919921875 328.7522888183594 C 675.1163940429688 329.3875732421875 674.3174438476562 329.70184326171875 673.37744140625 329.6950988769531 C 672.4441528320312 329.6883850097656 671.6598510742188 329.3560791015625 671.0245361328125 328.69818115234375 C 670.3893432617188 328.0335998535156 670.074951171875 327.24798583984375 670.0814819335938 326.3413391113281 C 670.088134765625 325.40802001953125 670.4205322265625 324.6137390136719 671.07861328125 323.95843505859375 C 671.7366333007812 323.309814453125 672.5189208984375 322.9887390136719 673.4255981445312 322.9952697753906 C 674.3655395507812 323.00201416015625 675.1598510742188 323.3343811035156 675.8084716796875 323.9924011230469 C 676.4637451171875 324.6571044921875 676.7879638671875 325.4561462402344 676.7813110351562 326.3894348144531 ZM 691.6053466796875 353.3429870605469 C 691.5990600585938 354.4096374511719 691.7342529296875 355.24041748046875 692.0107421875 355.83538818359375 C 692.2872924804688 356.43035888671875 692.6846313476562 356.8860168457031 693.2027587890625 357.202392578125 C 693.7142333984375 357.51873779296875 694.289794921875 357.7154235839844 694.9293212890625 357.7925109863281 C 695.56884765625 357.8762512207031 696.2485961914062 357.92022705078125 696.9686279296875 357.9244384765625 L 696.9483032226562 361.3943786621094 C 696.541259765625 361.4519958496094 696.1343383789062 361.4963073730469 695.7274780273438 361.5272521972656 C 695.380615234375 361.5585632324219 694.9671630859375 361.5794677734375 694.4871215820312 361.5899963378906 C 694.0003662109375 361.6004638671875 693.523681640625 361.6043395996094 693.0570068359375 361.60162353515625 C 692.59033203125 361.598876953125 692.11376953125 361.582763671875 691.6272583007812 361.5532531738281 C 691.1408081054688 361.5170593261719 690.7277221679688 361.4679870605469 690.3881225585938 361.4059753417969 C 689.3225708007812 361.21307373046875 688.4953002929688 360.7449035644531 687.9063110351562 360.0014343261719 C 687.3172607421875 359.2646484375 686.878662109375 358.4520568847656 686.5905151367188 357.5636901855469 C 686.2957763671875 356.6686096191406 686.11083984375 355.7975158691406 686.0358276367188 354.9504089355469 C 685.9674072265625 354.1099853515625 685.9345703125 353.4564514160156 685.9373168945312 352.9897766113281 L 686.020751953125 338.7400207519531 L 682.55078125 338.7197265625 L 682.5733032226562 334.8697814941406 L 686.0432739257812 334.8901062011719 L 686.087158203125 327.3902282714844 L 691.757080078125 327.4234313964844 L 691.7131958007812 334.92327880859375 L 695.93310546875 334.947998046875 L 695.9105834960938 338.7979431152344 L 691.6906127929688 338.7732238769531 L 691.6053466796875 353.3429870605469 ZM 723.1014404296875 353.31304931640625 L 723.099853515625 353.68304443359375 C 723.0987548828125 353.9363708496094 723.1138916015625 354.3031005859375 723.1451416015625 354.7832336425781 C 723.1763916015625 355.2700500488281 723.2376708984375 355.7636413574219 723.328857421875 356.2640380859375 C 723.4200439453125 356.7644348144531 723.5648193359375 357.2183837890625 723.7630615234375 357.62591552734375 C 723.968017578125 358.033447265625 724.2401733398438 358.30126953125 724.5796508789062 358.42938232421875 L 723.0662841796875 361.5629577636719 C 722.6596069335938 361.5612487792969 722.2300415039062 361.466064453125 721.7774658203125 361.2774658203125 C 721.324951171875 361.08221435546875 720.8894653320312 360.8136901855469 720.4708862304688 360.4718933105469 C 720.0523681640625 360.1234436035156 719.6940307617188 359.73858642578125 719.3958129882812 359.31732177734375 C 719.104248046875 358.89605712890625 718.8795776367188 358.4350891113281 718.7216796875 357.9344177246094 C 718.506103515625 358.4601745605469 718.1240234375 358.94854736328125 717.575439453125 359.3995666503906 C 717.02685546875 359.8505554199219 716.4051513671875 360.25457763671875 715.7102661132812 360.61163330078125 C 715.0220947265625 360.96868896484375 714.2808837890625 361.2388610839844 713.48681640625 361.4221496582031 C 712.6859741210938 361.60540771484375 711.9422607421875 361.6955871582031 711.255615234375 361.6926574707031 C 710.1956176757812 361.6881408691406 709.1729125976562 361.54376220703125 708.1874389648438 361.25958251953125 C 707.2019653320312 360.9753723144531 706.3372192382812 360.5183410644531 705.59326171875 359.8885192871094 C 704.8425903320312 359.2652893066406 704.2593994140625 358.4361572265625 703.8438110351562 357.4010314941406 C 703.42822265625 356.36590576171875 703.2236328125 355.0983581542969 703.2300415039062 353.598388671875 C 703.2361450195312 352.1650695800781 703.5447387695312 350.9263610839844 704.1558837890625 349.8822937011719 C 704.773681640625 348.8315734863281 705.5606689453125 347.97491455078125 706.516845703125 347.31231689453125 C 707.4730224609375 346.64306640625 708.5584716796875 346.1476745605469 709.773193359375 345.8262023925781 C 710.99462890625 345.498046875 712.2319946289062 345.336669921875 713.4852905273438 345.3420104980469 L 717.4652709960938 345.35894775390625 C 717.4717407226562 343.8323059082031 717.4002685546875 342.6153259277344 717.2507934570312 341.7080078125 C 717.0946655273438 340.8006591796875 716.8308715820312 340.1361999511719 716.4592895507812 339.7146301269531 C 716.0877685546875 339.286376953125 715.62890625 339.0177307128906 715.0827026367188 338.90875244140625 C 714.5364990234375 338.79974365234375 713.8867797851562 338.74365234375 713.1334228515625 338.7404479980469 C 712.44677734375 338.7375183105469 711.7997436523438 338.8180847167969 711.1923828125 338.982177734375 C 710.5783081054688 339.15289306640625 710.0140991210938 339.35382080078125 709.4998168945312 339.5849609375 C 708.9854736328125 339.81610107421875 708.531005859375 340.0741882324219 708.136474609375 340.3591613769531 C 707.741943359375 340.6374816894531 707.4510498046875 340.8529052734375 707.2637329101562 341.0054626464844 L 705.16748046875 337.7664794921875 C 705.4822998046875 337.4211730957031 705.9537963867188 337.06982421875 706.58203125 336.7125244140625 C 707.210205078125 336.3551940917969 707.9315795898438 336.03826904296875 708.74609375 335.76171875 C 709.553955078125 335.48516845703125 710.4348754882812 335.2622375488281 711.3889770507812 335.0929870605469 C 712.343017578125 334.9237060546875 713.3367309570312 334.8412780761719 714.3700561523438 334.8456726074219 C 715.3099975585938 334.84967041015625 716.2229614257812 334.9502258300781 717.1087646484375 335.1473388671875 C 718.0012817382812 335.33782958984375 718.8132934570312 335.6512756347656 719.5447998046875 336.0877380371094 C 720.2762451171875 336.5308532714844 720.9137573242188 337.1202392578125 721.457275390625 337.85589599609375 C 722.0007934570312 338.591552734375 722.3802490234375 339.5065002441406 722.5955810546875 340.60076904296875 C 722.8109130859375 341.6950378417969 722.9562377929688 342.79901123046875 723.031494140625 343.91265869140625 C 723.10009765625 345.0196228027344 723.132080078125 346.1197814941406 723.12744140625 347.2131042480469 L 723.1014404296875 353.31304931640625 M 717.5010986328125 348.68914794921875 L 714.5010986328125 348.6763610839844 C 713.8744506835938 348.6736755371094 713.217529296875 348.7342224121094 712.5303344726562 348.85797119140625 C 711.8431396484375 348.981689453125 711.2021484375 349.2123107910156 710.6073608398438 349.5497741699219 C 710.0125122070312 349.8939208984375 709.51708984375 350.3851318359375 709.1210327148438 351.0234680175781 C 708.731689453125 351.66180419921875 708.5348510742188 352.4809875488281 708.5305786132812 353.48095703125 C 708.52392578125 355.04095458984375 708.869140625 356.1690979003906 709.566162109375 356.86541748046875 C 710.2632446289062 357.5550537109375 711.2850952148438 357.9027404785156 712.6317749023438 357.9084777832031 C 713.5717163085938 357.9124755859375 714.4727783203125 357.66632080078125 715.3348999023438 357.16998291015625 C 716.1903686523438 356.67364501953125 716.9032592773438 356.0033264160156 717.4735107421875 355.1590881347656 L 717.5010986328125 348.68914794921875 ZM 738.1412963867188 353.50042724609375 C 738.1381225585938 354.5604248046875 738.2756958007812 355.39752197265625 738.5538330078125 356.0116882324219 C 738.83203125 356.6191711425781 739.220703125 357.0703125 739.7198486328125 357.3651428222656 C 740.2189331054688 357.6666259765625 740.7883911132812 357.8649597167969 741.4281005859375 357.960205078125 C 742.0678100585938 358.055419921875 742.7643432617188 358.1041564941406 743.5176391601562 358.10638427734375 L 743.5073852539062 361.57635498046875 C 743.1005249023438 361.6351623535156 742.6770629882812 361.6805725097656 742.2369995117188 361.7126159667969 C 741.8969116210938 361.74493408203125 741.4901733398438 361.7670593261719 741.0167846679688 361.77899169921875 C 740.550048828125 361.79095458984375 740.0833740234375 361.7962341308594 739.61669921875 361.79486083984375 C 739.1433715820312 361.79345703125 738.6734619140625 361.7787170410156 738.2068481445312 361.75067138671875 C 737.7402954101562 361.7159729003906 737.3170776367188 361.66802978515625 736.937255859375 361.6069030761719 C 735.8779296875 361.3837890625 735.0526733398438 360.91131591796875 734.4614868164062 360.1895751953125 C 733.8702392578125 359.46783447265625 733.4193115234375 358.66314697265625 733.1085815429688 357.7755432128906 C 732.7979125976562 356.88128662109375 732.6038208007812 356.0107116699219 732.5263061523438 355.163818359375 C 732.4555053710938 354.3236083984375 732.4207763671875 353.670166015625 732.422119140625 353.2034912109375 L 732.423828125 352.6335144042969 L 732.5053100585938 325.1236267089844 L 738.2252807617188 325.14056396484375 L 738.1412963867188 353.50042724609375 ZM 787.685546875 327.0967712402344 L 787.6813354492188 330.94677734375 L 777.371337890625 330.9355773925781 L 777.3380126953125 361.63555908203125 L 771.6580200195312 361.62939453125 L 771.6913452148438 330.9294128417969 L 761.38134765625 330.918212890625 L 761.3855590820312 327.0682067871094 L 787.685546875 327.0967712402344 ZM 804.5254516601562 334.9239501953125 C 806.652099609375 334.9232177734375 808.5289306640625 335.3525695800781 810.1558837890625 336.21197509765625 C 811.7828369140625 337.0714111328125 813.1199340820312 338.2109375 814.1671142578125 339.6305847167969 C 815.2142333984375 341.0502014160156 815.96484375 342.68994140625 816.4188232421875 344.5497741699219 C 816.872802734375 346.4096374511719 816.9568481445312 348.339599609375 816.6708374023438 350.3396911621094 L 798.3008422851562 350.3461608886719 C 798.3012084960938 351.3461608886719 798.4882202148438 352.2694091796875 798.86181640625 353.115966796875 C 799.2354736328125 353.955810546875 799.7457275390625 354.68231201171875 800.392578125 355.29541015625 C 801.0328369140625 355.90185546875 801.7963256835938 356.3782653808594 802.68310546875 356.724609375 C 803.5765380859375 357.0643005371094 804.5399169921875 357.23394775390625 805.5733032226562 357.2336120605469 C 805.9132690429688 357.2334899902344 806.3399047851562 357.1966552734375 806.8532104492188 357.1231384277344 C 807.3732299804688 357.04296875 807.9197998046875 356.8994445800781 808.4931030273438 356.69256591796875 C 809.072998046875 356.49237060546875 809.6528930664062 356.2355041503906 810.2327880859375 355.9219665527344 C 810.8126831054688 355.6084289550781 811.3192138671875 355.23492431640625 811.75244140625 354.8014221191406 L 813.8235473632812 357.9407043457031 C 812.7906494140625 359.2210693359375 811.587646484375 360.1881408691406 810.2145385742188 360.84197998046875 C 808.8347778320312 361.50244140625 807.0848999023438 361.83306884765625 804.9649047851562 361.83380126953125 C 803.244873046875 361.83441162109375 801.634765625 361.4816589355469 800.134521484375 360.7755126953125 C 798.63427734375 360.0760192871094 797.3505859375 359.1164855957031 796.2835083007812 357.8968505859375 C 795.2230834960938 356.67724609375 794.3792724609375 355.2541809082031 793.7520141601562 353.62774658203125 C 793.1314086914062 352.0079650878906 792.82080078125 350.2580871582031 792.8201904296875 348.3780822753906 C 792.8195190429688 346.5380859375 793.12890625 344.7979736328125 793.7483520507812 343.1577453613281 C 794.3744506835938 341.51751708984375 795.2105712890625 340.0872497558594 796.2568359375 338.86688232421875 C 797.3030395507812 337.6465148925781 798.5460815429688 336.6860656738281 799.98583984375 335.9855651855469 C 801.4188842773438 335.27838134765625 802.93212890625 334.9245300292969 804.5254516601562 334.9239501953125 M 811.41943359375 346.2215576171875 C 811.4191284179688 345.3748779296875 811.2655029296875 344.544921875 810.9585571289062 343.7317199707031 C 810.6448974609375 342.9184875488281 810.2146606445312 342.185302734375 809.6677856445312 341.53216552734375 C 809.120849609375 340.8790283203125 808.4540405273438 340.3559265136719 807.667236328125 339.9628601074219 C 806.8870849609375 339.5697937011719 806.0436401367188 339.360107421875 805.136962890625 339.333740234375 C 804.1703491210938 339.3340759277344 803.2803955078125 339.52105712890625 802.4671630859375 339.8946838378906 C 801.6539916992188 340.268310546875 800.9508056640625 340.7685546875 800.3577270507812 341.3954162597656 C 799.7645874023438 342.0223083496094 799.3048706054688 342.76580810546875 798.978515625 343.62591552734375 C 798.6521606445312 344.48602294921875 798.4890747070312 345.3527526855469 798.4893798828125 346.22607421875 L 811.41943359375 346.2215576171875 ZM 844.145751953125 357.89605712890625 C 843.0814819335938 359.2379150390625 841.926513671875 360.22991943359375 840.6809692382812 360.8721008300781 C 839.4287719726562 361.5142822265625 837.8359985351562 361.8370666503906 835.9026489257812 361.8404541015625 C 834.0559692382812 361.84368896484375 832.382080078125 361.4966125488281 830.8807983398438 360.7992248535156 C 829.3795776367188 360.0951843261719 828.0979614257812 359.1440734863281 827.0358276367188 357.9459533691406 C 825.9671020507812 356.747802734375 825.157958984375 355.33587646484375 824.6084594726562 353.7101745605469 C 824.0588989257812 352.08447265625 823.7825317382812 350.3182678222656 823.7791748046875 348.41162109375 C 823.77587890625 346.5382995605469 824.0695190429688 344.78778076171875 824.6599731445312 343.1600646972656 C 825.25048828125 341.5323791503906 826.0780029296875 340.1175842285156 827.142578125 338.9157409667969 C 828.2005004882812 337.70721435546875 829.4788208007812 336.75830078125 830.9776000976562 336.06903076171875 C 832.4764404296875 335.3797302246094 834.149169921875 335.0334777832031 835.9957885742188 335.0302429199219 C 837.9291381835938 335.0268859863281 839.5830078125 335.343994140625 840.9574584960938 335.9815673828125 C 842.338623046875 336.6191711425781 843.560302734375 337.6103820800781 844.6226806640625 338.9551696777344 L 842.0980224609375 342.00958251953125 C 841.5635986328125 341.38385009765625 840.8292846679688 340.8151550292969 839.89501953125 340.3034362792969 C 838.9541015625 339.78509521484375 837.6703491210938 339.52734375 836.043701171875 339.5301818847656 C 835.1103515625 339.53179931640625 834.250732421875 339.7532958984375 833.46484375 340.1946716308594 C 832.6856079101562 340.6293640136719 832.0233154296875 341.24053955078125 831.47802734375 342.0281677246094 C 830.9327392578125 342.8091125488281 830.5143432617188 343.7298278808594 830.2228393554688 344.79034423828125 C 829.9247436523438 345.8575439453125 829.7767333984375 347.01446533203125 829.7789306640625 348.2611389160156 C 829.7811279296875 349.51446533203125 829.91650390625 350.67755126953125 830.1849975585938 351.75042724609375 C 830.4535522460938 352.8299560546875 830.855224609375 353.77593994140625 831.3899536132812 354.58831787109375 C 831.9180908203125 355.4007263183594 832.5491943359375 356.0396423339844 833.2833251953125 356.5050354003906 C 834.024169921875 356.97039794921875 834.8778686523438 357.2022399902344 835.8445434570312 357.2005615234375 C 837.251220703125 357.1980895996094 838.4307861328125 356.9693603515625 839.3833618164062 356.5143737792969 C 840.3358764648438 356.0593566894531 841.21826171875 355.5044860839844 842.0304565429688 354.8497314453125 L 844.145751953125 357.89605712890625 ZM 874.3762817382812 361.50579833984375 L 868.6563110351562 361.524169921875 L 868.610107421875 347.1342468261719 C 868.606689453125 346.0742492675781 868.5567626953125 345.0577392578125 868.4603271484375 344.084716796875 C 868.3638916015625 343.11834716796875 868.1444702148438 342.2590637207031 867.802001953125 341.5068359375 C 867.4529418945312 340.7612609863281 866.9810791015625 340.179443359375 866.3864135742188 339.7613525390625 C 865.7916870117188 339.33660888671875 864.96435546875 339.12591552734375 863.9043579101562 339.12933349609375 C 863.5577392578125 339.13043212890625 863.1112060546875 339.17852783203125 862.5648193359375 339.27362060546875 C 862.0184936523438 339.36871337890625 861.4556274414062 339.51385498046875 860.876220703125 339.70904541015625 C 860.303466796875 339.8975524902344 859.757568359375 340.1326599121094 859.2384643554688 340.414306640625 C 858.72607421875 340.6959533691406 858.34375 341.02386474609375 858.0916137695312 341.39801025390625 L 858.092529296875 341.6780090332031 L 858.0928344726562 341.77801513671875 L 858.126220703125 352.1779479980469 L 858.1265869140625 352.2779541015625 L 858.1563720703125 361.5578918457031 L 852.4863891601562 361.57611083984375 L 852.3694458007812 325.15631103515625 L 858.0394287109375 325.1380920410156 L 858.0800170898438 337.78802490234375 C 858.4589233398438 337.4468078613281 858.9345092773438 337.09527587890625 859.5066528320312 336.7334289550781 C 860.0855102539062 336.37158203125 860.7177734375 336.0495300292969 861.403564453125 335.767333984375 C 862.08935546875 335.4851379394531 862.7919311523438 335.2562255859375 863.5113525390625 335.08056640625 C 864.2308349609375 334.9049377441406 864.933837890625 334.8160095214844 865.6205444335938 334.81378173828125 C 867.0271606445312 334.80926513671875 868.2147827148438 335.1021423339844 869.183349609375 335.6923522949219 C 870.1585693359375 336.2825622558594 871.1310424804688 337.0461120605469 872.1007080078125 337.9830017089844 C 872.6358032226562 338.5146179199219 873.0510864257812 339.12994384765625 873.3466796875 339.8290100097656 C 873.64892578125 340.5280456542969 873.8712768554688 341.2606506347656 874.0137329101562 342.0268859863281 C 874.1561889648438 342.7930908203125 874.245361328125 343.5661315917969 874.2811889648438 344.3460388183594 C 874.3103637695312 345.1325988769531 874.326171875 345.89923095703125 874.3285522460938 346.6459045410156 L 874.373291015625 360.5658264160156 L 874.3762817382812 361.50579833984375 ZM 915.4502563476562 337.0135498046875 C 915.4573364257812 338.2335205078125 915.197998046875 339.4917297363281 914.6722412109375 340.78814697265625 C 914.1531372070312 342.0911865234375 913.460693359375 343.37860107421875 912.5947265625 344.65032958984375 C 911.7221069335938 345.9154357910156 910.7659301757812 347.147705078125 909.7262573242188 348.34710693359375 C 908.6865234375 349.53985595703125 907.6464233398438 350.6692810058594 906.60595703125 351.7353515625 C 905.5654907226562 352.80145263671875 904.5877685546875 353.7671813964844 903.6727905273438 354.63250732421875 C 902.7578125 355.49786376953125 902.0054321289062 356.22894287109375 901.41552734375 356.8257141113281 L 916.0852661132812 356.74017333984375 L 916.11181640625 361.29010009765625 L 894.6422119140625 361.415283203125 L 894.611572265625 356.1653747558594 C 895.1686401367188 355.6621398925781 895.9446411132812 354.97760009765625 896.9396362304688 354.1117858886719 C 897.9346313476562 353.2459716796875 899.0089721679688 352.2796630859375 900.1627807617188 351.2129211425781 C 901.3098754882812 350.1395568847656 902.4598999023438 348.99951171875 903.6129150390625 347.7927551269531 C 904.7591552734375 346.5793762207031 905.8053588867188 345.353271484375 906.7515258789062 344.1143798828125 C 907.6976318359375 342.8755187988281 908.4705810546875 341.6609802246094 909.0703125 340.4707946777344 C 909.6766967773438 339.28057861328125 909.976806640625 338.1554870605469 909.9706420898438 337.0954895019531 C 909.9642333984375 335.9955139160156 909.76220703125 335.08001708984375 909.3646240234375 334.3489990234375 C 908.9736938476562 333.617919921875 908.4768676757812 333.02081298828125 907.8741455078125 332.5576477050781 C 907.278076171875 332.0944519042969 906.6295166015625 331.7682189941406 905.9284057617188 331.5789794921875 C 905.2206420898438 331.39642333984375 904.5567626953125 331.3069763183594 903.936767578125 331.3105773925781 C 902.716796875 331.31768798828125 901.7070922851562 331.36358642578125 900.9075317382812 331.4482421875 C 900.1146850585938 331.5328674316406 899.4219970703125 331.64691162109375 898.8295288085938 331.7903747558594 C 898.2369995117188 331.933837890625 897.7047729492188 332.1302795410156 897.23291015625 332.37969970703125 C 896.7677612304688 332.6357421875 896.2694091796875 332.9219970703125 895.7379150390625 333.2384338378906 L 894.0776977539062 329.7780456542969 C 894.6414184570312 329.2747497558594 895.33544921875 328.8173522949219 896.1597290039062 328.4058837890625 C 896.9840087890625 327.9944152832031 897.8421020507812 327.6627197265625 898.7339477539062 327.4108581542969 C 899.619140625 327.15234375 900.5013427734375 326.9505310058594 901.3804931640625 326.805419921875 C 902.2529907226562 326.66033935546875 903.0625610351562 326.5856018066406 903.8092041015625 326.58123779296875 C 905.842529296875 326.56939697265625 907.5877075195312 326.8858947753906 909.0448608398438 327.5307312011719 C 910.5020141601562 328.1822509765625 911.7035522460938 329.0119323730469 912.6494140625 330.0197448730469 C 913.588623046875 331.0276184082031 914.28857421875 332.1568908691406 914.7492065429688 333.4075622558594 C 915.2097778320312 334.6515808105469 915.4434814453125 335.85357666015625 915.4502563476562 337.0135498046875 ZM 935.748779296875 326.02587890625 C 937.8087158203125 326.0082702636719 939.6552734375 326.3758544921875 941.2883911132812 327.12860107421875 C 942.9215698242188 327.88134765625 944.321044921875 328.986083984375 945.4868774414062 330.4428405761719 C 946.6593627929688 331.8995361328125 947.558349609375 333.7286071777344 948.183837890625 335.92999267578125 C 948.8092651367188 338.124755859375 949.1343994140625 340.6753845214844 949.1592407226562 343.5819396972656 C 949.18408203125 346.488525390625 948.9026489257812 349.0543518066406 948.31494140625 351.2794494628906 C 947.727294921875 353.5045471191406 946.8597412109375 355.3553466796875 945.7122802734375 356.8318786621094 C 944.571533203125 358.308349609375 943.1911010742188 359.43017578125 941.5709228515625 360.1973876953125 C 939.95068359375 360.9579162597656 938.110595703125 361.34698486328125 936.0506591796875 361.3645935058594 C 933.9840698242188 361.3822326660156 932.1376342773438 361.024658203125 930.5112915039062 360.2918701171875 C 928.8782348632812 359.5524597167969 927.4854736328125 358.4543151855469 926.3330078125 356.9974365234375 C 925.1805419921875 355.5405578613281 924.2881469726562 353.70477294921875 923.6558837890625 351.4901123046875 C 923.0302734375 349.2753601074219 922.7050170898438 346.7147216796875 922.6802368164062 343.80816650390625 C 922.6553955078125 340.9015808105469 922.9368896484375 338.34576416015625 923.5247192382812 336.1406555175781 C 924.1192016601562 333.9288330078125 924.9801635742188 332.0847473144531 926.1076049804688 330.6083984375 C 927.2349853515625 329.1320495605469 928.6087646484375 328.00360107421875 930.2288208007812 327.22308349609375 C 931.8422241210938 326.4425964355469 933.6821899414062 326.04351806640625 935.748779296875 326.02587890625 M 935.9284057617188 330.6645202636719 C 934.7684326171875 330.6744079589844 933.7236938476562 330.9033508300781 932.794189453125 331.351318359375 C 931.85791015625 331.79266357421875 931.0675659179688 332.5394287109375 930.4232177734375 333.5916442871094 C 929.7721557617188 334.6439208984375 929.2737426757812 336.0015563964844 928.927978515625 337.66455078125 C 928.5820922851562 339.3209228515625 928.4061279296875 341.35247802734375 928.4000244140625 343.7593078613281 C 928.4429321289062 345.6656494140625 928.5806884765625 347.3512268066406 928.813232421875 348.8159484863281 C 929.0457763671875 350.287353515625 929.386474609375 351.53448486328125 929.835205078125 352.5573425292969 L 939.40673828125 331.62481689453125 C 938.3677978515625 330.97369384765625 937.2083740234375 330.653564453125 935.9284057617188 330.6645202636719 M 935.8714599609375 356.77593994140625 C 937.0247802734375 356.7660827636719 938.0761108398438 356.5304260253906 939.0255126953125 356.0689697265625 C 939.9749755859375 355.6075134277344 940.7752685546875 354.8573303222656 941.4263916015625 353.8183898925781 C 942.0709228515625 352.7861633300781 942.5660400390625 351.431884765625 942.9117431640625 349.75555419921875 C 943.2574462890625 348.0791931152344 943.433349609375 346.0376281738281 943.439453125 343.6308288574219 C 943.37939453125 339.7245178222656 942.8404541015625 336.72900390625 941.8226318359375 334.644287109375 L 932.2015991210938 355.6372375488281 C 933.1749267578125 356.4089660644531 934.398193359375 356.7885437011719 935.8714599609375 356.77593994140625 ZM 977.6719970703125 336.38543701171875 C 977.6880493164062 337.6053466796875 977.43798828125 338.86541748046875 976.9216918945312 340.1656494140625 C 976.4121704101562 341.47247314453125 975.7291259765625 342.7649230957031 974.87255859375 344.04296875 C 974.0092163085938 345.314453125 973.0621337890625 346.5536804199219 972.03125 347.76068115234375 C 971.0003051757812 348.9610290527344 969.968505859375 350.0980529785156 968.9359130859375 351.1717529296875 C 967.9032592773438 352.24542236328125 966.9326782226562 353.2182922363281 966.0240478515625 354.09033203125 C 965.115478515625 354.9623718261719 964.368408203125 355.69891357421875 963.782958984375 356.3000183105469 L 978.4517211914062 356.1069030761719 L 978.5115966796875 360.656494140625 L 957.04345703125 360.93914794921875 L 956.974365234375 355.6896057128906 C 957.5277099609375 355.1822814941406 958.2987060546875 354.4920654296875 959.2872924804688 353.6189880371094 C 960.27587890625 352.7458801269531 961.3431396484375 351.7717590332031 962.4890747070312 350.6965637207031 C 963.6282958984375 349.61480712890625 964.7698974609375 348.4663391113281 965.9140014648438 347.2511901855469 C 967.0513916015625 346.0294494628906 968.0885620117188 344.7956848144531 969.0255737304688 343.5498962402344 C 969.9625854492188 342.30413818359375 970.7265625 341.0839538574219 971.3175659179688 339.889404296875 C 971.9152221679688 338.69476318359375 972.2070922851562 337.5675048828125 972.193115234375 336.5075988769531 C 972.1786499023438 335.4076843261719 971.9699096679688 334.4936828613281 971.5669555664062 333.7655944824219 C 971.1707153320312 333.03741455078125 970.6694946289062 332.4439697265625 970.0634155273438 331.9852294921875 C 969.4639892578125 331.52642822265625 968.8130493164062 331.2049560546875 968.1105346679688 331.0208740234375 C 967.4014892578125 330.843505859375 966.7369995117188 330.7589111328125 966.1170043945312 330.76708984375 C 964.8971557617188 330.78314208984375 963.8877563476562 330.83642578125 963.0888671875 330.9269714355469 C 962.2966918945312 331.01739501953125 961.6048583984375 331.1365051269531 961.013427734375 331.2843017578125 C 960.4219360351562 331.43212890625 959.8912353515625 331.6324462890625 959.4212036132812 331.88531494140625 C 958.9578857421875 332.144775390625 958.461669921875 332.4346618652344 957.9324951171875 332.7550048828125 L 956.2469482421875 329.306884765625 C 956.8070068359375 328.7994689941406 957.4976196289062 328.3370056152344 958.31884765625 327.91949462890625 C 959.14013671875 327.5019836425781 959.9957275390625 327.1640319824219 960.8857421875 326.9056091308594 C 961.7689819335938 326.640625 962.649658203125 326.4323425292969 963.5277709960938 326.2807922363281 C 964.399169921875 326.1293029785156 965.2081909179688 326.04864501953125 965.9547729492188 326.038818359375 C 967.9879150390625 326.0120544433594 969.7354125976562 326.31573486328125 971.1972045898438 326.9498596191406 C 972.6591186523438 327.5906677246094 973.86669921875 328.4115295410156 974.8199462890625 329.4123840332031 C 975.7665405273438 330.4133605957031 976.4747314453125 331.5374450683594 976.9445190429688 332.78472900390625 C 977.4142456054688 334.0252990722656 977.65673828125 335.2255554199219 977.6719970703125 336.38543701171875 ZM 998.2846069335938 352.17340087890625 L 983.3395385742188 352.55804443359375 L 983.2247924804688 348.0995178222656 L 997.6030883789062 325.6921691894531 L 1003.3211669921875 325.54498291015625 L 1003.887939453125 347.56768798828125 L 1007.4967651367188 347.4748229980469 L 1007.6115112304688 351.933349609375 L 1004.002685546875 352.0262145996094 L 1004.2100830078125 360.08355712890625 L 998.4920043945312 360.230712890625 L 998.2846069335938 352.17340087890625 M 998.1698608398438 347.7148742675781 L 997.7720947265625 332.2599792480469 L 988.2431640625 347.9703674316406 L 998.1698608398438 347.7148742675781 Z" transform="matrix(1, 0, 0, 1, 1, 0)" style="fill: rgb(51, 51, 51); white-space: pre; color: rgb(51, 51, 51);"/></svg>