<?xml version="1.0" encoding="utf-8"?>
<svg id="master-artboard" viewBox="0 0 1400 980" version="1.1" xmlns="http://www.w3.org/2000/svg" x="0px" y="0px" style="enable-background:new 0 0 336 235.2;" width="1400px" height="980px"><rect id="ee-background" x="0" y="0" width="1400" height="980" style="fill: white; fill-opacity: 0; pointer-events: none;"/>














<g transform="matrix(0.6956942081451416, 0, 0, 0.6956942081451416, 438.7037258917153, 220.11837850786839)"><g transform="matrix(1, 0, 0, 1, 0, 0)"><path class="cls-1" d="M515.29,354.28c-1.53-.51-3-1.05-4.46-1.61s-3.06-1.06-4.59-1.54c-18.64-5.93-37.13-11.48-55.43-18.42-2.35-.89-4.76-1.72-7.2-2.48-1.23.27-2.46,0.53-3.7,0.76-2.4.44-4.84,0.74-7.32,0.94,14.6,3.48,28.57,10.49,42.77,14.75,8.54,2.56,16.91,5.47,25.49,7.89,9,2.53,17.46,6.7,26.25,9.86,2.23,0.8,6.71,2.07,10.42,3.72,0.07-1.66.19-3.32,0.27-5-1.44-.59-2.89-1.14-4.28-1.68C527.52,359.09,521.42,356.57,515.29,354.28Z" style="fill: rgb(51, 51, 51); opacity: 1;" transform="matrix(1, 0, 0, 1, 0, 0)"/><path class="cls-1" d="M526.66,369.11c-8.59-1.58-16.73-3.62-25.47-4.59-10-1.11-20-1.56-29.81-3.91-7.86-1.88-14.7-6.94-22.58-9.22a260.43,260.43,0,0,0-28.55-6.81,394.56,394.56,0,0,0-56.72-5.18l-6.85-.18a41.58,41.58,0,0,1-1.14,5.34l8,0.19c20.45,0.45,41.92,2.07,62,6.23,9.8,2,20.2,4.19,29.44,8.08,3.72,1.56,7,4,10.77,5.43A70.06,70.06,0,0,0,479,367.58c9.64,1.57,19.48,1.87,29.17,3.06,4.95,0.61,9.45,2.06,14.28,3,3.91,0.8,8.06.79,11.87,1.68A36,36,0,0,1,538,376.6a27.9,27.9,0,0,1-.57-5.71l-0.55-.2C533.55,369.59,530.14,369.75,526.66,369.11Z" style="fill: rgb(51, 51, 51); opacity: 1;" transform="matrix(1, 0, 0, 1, 0, 0)"/><path class="cls-1" d="M157.27,368.51a53.77,53.77,0,0,0,24.07-7.38c4-2.32,8-4.94,12.45-6.48,4.82-1.67,10.07-2.31,15.08-3.25,10.72-2,21.49-3.77,32.33-5,10.18-1.15,20.62-2.2,30.87-1.6,10.06,0.59,19.51,1.53,29.59.55,17.57-1.71,35.38-1.27,53.06-.82-0.67-1.76-1.13-3.66-1.77-5.42-16.38-.46-32.91-0.91-49.15.63a145.64,145.64,0,0,1-27.21,0c-9.9-.87-19.77-0.31-29.66.62-9.43.89-18.82,2.2-28.17,3.75-8.95,1.48-18.84,2.36-27.35,5.56-8.16,3.06-14.95,9-23.35,11.44a43.7,43.7,0,0,1-28.83-1.25l-3.08-1.23c0,2,0,4-.15,6C142.86,367.31,149.61,369,157.27,368.51Z" style="fill: rgb(51, 51, 51); opacity: 1;" transform="matrix(1, 0, 0, 1, 0, 0)"/><path class="cls-1" d="M287.92,328.61a64.45,64.45,0,0,0-12.27-.43c1.91,0.09,3.84.16,5.79,0.2C283.61,328.42,285.77,328.5,287.92,328.61Z" style="fill: rgb(51, 51, 51); opacity: 1;" transform="matrix(1, 0, 0, 1, 0, 0)"/><path class="cls-1" d="M225.61,332c-1.31,0-2.62,0-3.91-.07a26.63,26.63,0,0,1-7.37-1,16.09,16.09,0,0,1-1.8-.75c-2.93.69-5.85,1.45-8.73,2.34a15.2,15.2,0,0,0-2.14,5.53,124.43,124.43,0,0,1,12.56-3.75C218,333.42,221.79,332.68,225.61,332Z" style="fill: rgb(51, 51, 51); opacity: 1;" transform="matrix(1, 0, 0, 1, 0, 0)"/><path class="cls-1" d="M158.89,346.56c9.53-1.31,19-.5,28.27-3.48,4.67-1.5,9.23-3.21,13.83-4.82a18.23,18.23,0,0,0-1.23-4.41c-8.25,3-16.38,6.83-25.22,7.16-10,.37-19.8,2.29-29.77,2.73-3,.13-6.16.32-9.26,0.33a34.54,34.54,0,0,0,.14,4.48A166.17,166.17,0,0,0,158.89,346.56Z" style="fill: rgb(51, 51, 51); opacity: 1;" transform="matrix(1, 0, 0, 1, 0, 0)"/><path class="cls-1" d="M167,334.07c-1.52-.26-3-0.48-4.5-0.59-1.16-.08-2.56-0.24-4.09-0.38a40.61,40.61,0,0,1-13.25.51,10.78,10.78,0,0,0-2.22,1,11.16,11.16,0,0,0-3.78,1.69,38.78,38.78,0,0,0,11,1.48A40,40,0,0,0,167,334.07Z" style="fill: rgb(51, 51, 51); opacity: 1;" transform="matrix(1, 0, 0, 1, 0, 0)"/><path class="cls-1" d="M529,378.77c-15.49.57-31.23,3.33-46.58-.12-6.61-1.48-13.12-3.83-19.56-5.93-7.15-2.33-14.77-2.73-22.15-4.06-6.31-1.14-12.64-1.92-19-2.77-8.65-1.15-17-3.57-25.49-5.71-14.06-3.56-27.52-4.68-41.93-5.63-14.88-1-30-4-44.92-3.28-14.09.72-28.28,2.75-42.35,4-7.49.69-14.74,1.75-22.28,1.73s-15,1.84-22.58,2.32c-13.51.85-25.8,3.32-38.22,9-6.24,2.86-12.26,6.17-18.48,9.08a63.24,63.24,0,0,1-8.67,3.53c-5.1,1.52-8.83.43-13.41-1.85-2.79-1.39-5.56-2.9-8.32-4.42-0.07.59-.13,1.17-0.21,1.77-0.17,1.22-.27,2.44-0.36,3.65,4.65,2.46,9.68,5.71,14.87,6.48s10.49-1.34,15.23-3.42c12.25-5.37,23.55-12.58,36.58-16.06,7.81-2.09,15.25-2.44,23.22-3.25,7.64-.77,15-2.15,22.67-2.16,13.92,0,28.07-2.54,42-3.59,7.14-.54,14.23-1.85,21.38-2.11s14.39,0.75,21.61,1.55c15.39,1.71,31.27,1.48,46.51,4.13,14.3,2.48,28,7.59,42.45,9.51,16,2.13,32,4.3,47.45,9.07,7.3,2.26,14.37,4.46,22,5.23,8.26,0.84,16.46.26,24.72-.3,8-.54,16.06-1,24.1-0.87-0.23-1.87-.51-3.74-0.87-5.63C535.32,378.65,532.18,378.65,529,378.77Z" style="fill: rgb(51, 51, 51); opacity: 1;" transform="matrix(1, 0, 0, 1, 0, 0)"/><path class="cls-1" d="M508.47,346.12c-6.18-3-11.39-7.08-17.92-9.35-7.64-2.66-15-6.56-22.42-9.83-2.83.3-5.65,0.59-8.51,0.77q2.85,1.31,5.74,2.6c7.38,3.3,14.55,7.58,22.09,10.41,7.75,2.9,13.94,8.1,21.57,11.23,0.59,0.24,1.2.48,1.81,0.71,1.45,0.56,2.93,1.1,4.46,1.61A66.1,66.1,0,0,0,533,357.9c1.62,0.07,3.25,0,4.87-.08,0-.66-0.08-1.33-0.17-2-0.14-1.13-.32-2.23-0.5-3.32-0.7,0-1.41.06-2.11,0.07C526.62,352.73,516.08,349.8,508.47,346.12Z" style="fill: rgb(51, 51, 51); opacity: 1;" transform="matrix(1, 0, 0, 1, 0, 0)"/><path class="cls-1" d="M517.74,347.68c5.89,2,12.79,1.95,19,2.6-0.28-1.55-.53-3.1-0.73-4.68h-0.14c-0.48,0-1-.1-1.46-0.17-3.12-.35-6.24-0.72-9.36-1-6.84-.56-13.08-4-18.74-7.72-5.05-3.36-9.84-7-15-10.28-0.71-.45-1.4-0.91-2.07-1.39l-4.25.44c4.91,4.3,10.68,7.76,15.75,11.82S511.55,345.55,517.74,347.68Z" style="fill: rgb(51, 51, 51); opacity: 1;" transform="matrix(1, 0, 0, 1, 0, 0)"/><path class="cls-1" d="M534.47,345.43c0.49,0.07,1,.13,1.46.17h0.14a35.11,35.11,0,0,1-.29-5c-9-.84-18-5.54-25.31-10.43-2.82-1.9-5.56-4.06-8.23-6.27-1.44.07-2.89,0.17-4.34,0.29a117.42,117.42,0,0,0,10.46,9.11C515.44,338.66,525.37,344.21,534.47,345.43Z" style="fill: rgb(51, 51, 51); opacity: 1;" transform="matrix(1, 0, 0, 1, 0, 0)"/><path class="cls-1" d="M528.87,334.34c2.31,1.08,4.65,2.38,7.08,3.34a35.26,35.26,0,0,0,.14-4.62A78.65,78.65,0,0,1,520,325c-2.1-.34-4.2-0.69-6.41-0.9l-1.16-.09c1,0.84,2,1.65,3.06,2.41A79.15,79.15,0,0,0,528.87,334.34Z" style="fill: rgb(51, 51, 51); opacity: 1;" transform="matrix(1, 0, 0, 1, 0, 0)"/><path class="cls-1" d="M531.57,326.21c0.49,0.21,1,.41,1.5.6A5.62,5.62,0,0,0,531.57,326.21Z" style="fill: rgb(51, 51, 51); opacity: 1;" transform="matrix(1, 0, 0, 1, 0, 0)"/><path class="cls-1" d="M482.57,394.11c-14.42-3.61-28.1-10-42.76-12.59-6.15-1.07-12.22-1.09-18.44-1.23a131.87,131.87,0,0,1-24.67-3.2c-6.34-1.37-12.57-3.31-19-4.14s-13-2.27-19.44-2.93c-7.46-.76-14.93.61-22.4-0.41a143.73,143.73,0,0,0-20.27-.94c-7.43,0-15-.31-22.4.1-7.14.4-14,1.52-21.18,1.44-14.59-.15-28.59-1.77-43.17,0-13.66,1.65-27,4.29-39.31,10.57-5.25,2.68-10.73,4.85-15.95,7.59-6.56,3.45-12.8,8.39-20.4,9.15-3.91.39-7.11-1-10.82-1.82-3-.66-6.06-0.48-9.07-0.89-0.27,1.4-.54,2.81-0.8,4.23,1.67,0.23,3.34.37,5.15,0.54,3.59,0.34,6.63,1.69,10.15,2.25,5.5,0.87,10.77-.48,15.75-2.8,12.42-5.8,23.91-14.13,36.94-18.68a134.74,134.74,0,0,1,46.17-7.15c14.26,0.39,27.88,2.19,42.16.64,7.37-.8,14.86-0.35,22.27-0.34,7.85,0,15.67-.29,23.45.86,6.53,1,12.92.4,19.48,0.5,7.49,0.12,15.16,2.22,22.63,3.12,14,1.68,27.23,6.55,41.42,7.44,9.18,0.58,17.92.48,26.93,2.79,8,2,15.53,5.23,23.34,7.76,16.16,5.24,33.18,8.75,49.94,11.41q11.6,1.84,23.34,2.8c0-.43.1-0.85,0.13-1.28a35.54,35.54,0,0,0,0-4.47q-6.22-.51-12.39-1.26A384,384,0,0,1,482.57,394.11Z" style="fill: rgb(51, 51, 51); opacity: 1;" transform="matrix(1, 0, 0, 1, 0, 0)"/><path class="cls-1" d="M513.27,414.94a128.76,128.76,0,0,0-20.72-7c-6.67-1.81-13.12-3.9-19.94-5.1-7.75-1.37-14.5-5-22-7.06-6.79-1.86-13.81-2.21-20.76-3.12-7.59-1-15.23.07-22.85-.46s-15.05-1.8-22.65-2.22a147.69,147.69,0,0,1-23.76-2.9c-6.83-1.51-13.22-4.26-20.16-5.37a126.06,126.06,0,0,0-20.56-1.22c-15.82.07-31.65-.45-47.39,1.47-15.44,1.88-31.11,3.62-46.34,6.82-7.06,1.48-14.15,3.19-21.11,5.1s-13.33,5.26-19.88,8.26a126.82,126.82,0,0,1-19.42,7.57c-7.31,2-13.58-.09-20.91,0a83,83,0,0,1-13.74-1c-0.14,1.28-.27,2.55-0.36,3.81,0,0.42,0,.84-0.06,1.26q2.94,0.39,5.91.57c3.4,0.2,6.79,0,10.18.08,3.09,0.09,5.79,1,8.79,1.36,6.31,0.76,13.07-1.71,18.86-3.89,6.46-2.42,12.7-5.36,19-8.26,7.59-3.53,15-5.48,23.07-7.48,15.7-3.89,31.51-5.91,47.52-8.07,17.23-2.33,34.1-2.44,51.45-2.46,7.08,0,14.18-.15,21.21.73,8.18,1,15.6,4.31,23.61,6A148,148,0,0,0,381,395c8.7,0.59,17.32,1.82,26,2.43,7.82,0.55,15.63-.5,23.42.6s15.42,1.59,22.91,4.14c4,1.37,7.74,3.41,11.81,4.58s8.1,1.44,12.1,2.35c8,1.83,16.23,4.23,24,6.76,8.19,2.67,15.44,7.32,23.85,9.43a122.23,122.23,0,0,0,13.26,2.41,34.18,34.18,0,0,1,.5-5.46l0-.19L535,421.5A79.35,79.35,0,0,1,513.27,414.94Z" style="fill: rgb(51, 51, 51); opacity: 1;" transform="matrix(1, 0, 0, 1, 0, 0)"/><path class="cls-1" d="M460.18,430.27c-7.38-.11-14.81-0.76-22.19-0.46s-14.06,2.28-21.11,4.36A141.25,141.25,0,0,0,398,440.74c-7.29,3.32-14.7,7-22.42,9.25-8.16,2.39-15.62.9-23.81-.37-7.62-1.19-15.33-1.31-23-2-16.08-1.5-31.1-7.28-46.87-10.32-15.41-3-31.1-4.55-46.69-6.27-16-1.77-31.81-4.52-47.76-6.67-7-.95-14.15-3-21.19-3.4-3.2-.18-5.8.92-9,1.22-3.76.36-7.28,0.42-11,1.15-5.05,1-10.17,2.08-15.29,3.29,0,0.86.08,1.72,0.12,2.57a24.93,24.93,0,0,1-.22,4c14-3.51,28.7-7.89,42.89-4.81,7.17,1.56,14.54,2,21.78,3.25q11.75,2,23.57,3.49c16.61,2.07,33.28,3.54,49.84,6,15.62,2.35,30.44,7.29,45.87,10.41a157.86,157.86,0,0,0,20.61,2.5c8.26,0.56,16.28,1.8,24.47,2.83,14.11,1.78,26.6-4.34,39.11-10.11,14-6.44,29.94-11.37,45.39-11.11,17.24,0.29,34.3.73,50.3,7.83a323.36,323.36,0,0,0,41,15.07c-0.08-1.91-.18-3.9-0.09-5.84a243.6,243.6,0,0,1-35-12.77C487.79,434,474.31,430.47,460.18,430.27Z" style="fill: rgb(51, 51, 51); opacity: 1;" transform="matrix(1, 0, 0, 1, 0, 0)"/><path class="cls-1" d="M487,421.78c-3.72-.53-7.18-2.88-10.67-4.26-4.25-1.69-8.42-3.57-12.67-5.24s-8.4-1.93-12.87-2.63-9-1.76-13.48-2.38a156.93,156.93,0,0,0-26.1-1c-10.61.29-21.48-1.28-31.9-3-12.21-2-24.59-1.69-36.91-2.41a1.73,1.73,0,0,0-2.27-.42,3.73,3.73,0,0,1-.54.23c-3.41-.25-6.82-0.6-10.21-1.12a43.58,43.58,0,0,0-4.3-2.16,26.73,26.73,0,0,0-8.54-1.21,20.7,20.7,0,0,0-3.34-.79c-4.87-.68-10.2,0-15.1,0-9.5.09-19.15-.86-28.61,0.34-2,.25-3.92.6-5.86,1-6.08,1-12.07,2.76-18.17,4.14-1.17.27-2.34,0.56-3.51,0.83-0.87.16-1.73,0.33-2.6,0.46a85.48,85.48,0,0,0-12.2,3.06l-0.54.13c-4,.92-8.18,2.13-12.36,2.87a25.84,25.84,0,0,0-6.22.72c-2.1.54-1.73,4,.52,3.86,1.64-.11,3.28-0.3,4.93-0.53,5.17-.09,11.1,1.08,15.72,1.8,9.26,1.44,18.84,1.28,28,3.53,8.78,2.16,16.65,6.52,25.28,9,8.9,2.56,18.09,4.63,27.17,6.46,8.26,1.67,15.92,3.26,24.34,2.14,9.6-1.28,19.33-1.86,28.87-3.54,19.78-3.48,38.89-8.65,59-10.57,11.06-1.06,21.26-.54,32.3.46,10.82,1,21.57,3.4,32.34,4.29C488.8,426.09,489.38,422.11,487,421.78Zm-28.66-3.56c-9.66-1-19.41-2.1-29.09-1.21A444.63,444.63,0,0,0,373,425.9c-10,2.23-20,3.3-30.25,4.35-4.4.45-8.84,1.2-13.25,1.43-5.6.3-11.08-1.22-16.54-2.28-9.12-1.78-18.25-3.92-27.23-6.31s-17.26-6.93-26.35-9.31c-9.71-2.54-20-2.28-29.83-3.79l-2.91-.46c5.57-1.47,11.11-3.15,16.5-4.48,4.37-1.08,8.73-2.26,13.1-3.37,0.86-.18,1.71-0.36,2.57-0.56a80.54,80.54,0,0,1,10.07-1.66,86.83,86.83,0,0,1,12.09.61c5.88,0.59,11.62-.38,17.46-0.85,7.13,0,14.15.2,21,2.58,16.59,5.77,35.51,4.11,52.75,5.3,9.76,0.67,19.48,2.67,29.27,3.52,9.15,0.79,18.27-.23,27.45.44a161.31,161.31,0,0,1,17.39,2.46c4.77,0.87,9.9,1,14.49,2.57a78.4,78.4,0,0,1,8.34,3.56C465.5,419.1,461.92,418.57,458.38,418.22Z" style="fill: rgb(51, 51, 51); opacity: 1;" transform="matrix(1, 0, 0, 1, 0, 0)"/><path class="cls-1" d="M377.32,413.33c-9.76.62-20.06-.49-29.75-1.69-8.88-1.09-17.92-1-26.82-1.83-8.67-.79-16.32-4.53-25-4.21-8,.3-15.62.33-23,3.57-1.69.74-.95,3.09,0.47,3.6,4.12,1.47,8.32,1.88,12.6,2.69,3.37,0.64,6.53,1.87,10,2.19,4.56,0.43,9,1.38,13.58,1.8l0.21,0a67.21,67.21,0,0,0,18.77,2.68c9.32-.14,18.52-0.94,27.88-0.87,7.11,0,14.87-1.59,21.68-3.6C380.23,417,379.9,413.16,377.32,413.33Zm-53.86.81c9,0.29,18.1,1.24,27.16,2.1-1.08.16-2.17,0.33-3.26,0.52a85.2,85.2,0,0,1-25.1.48c-5.59-.74-11.31-1.2-17-1.77-7.57-1.85-15.09-4-22.89-4.84a81.38,81.38,0,0,1,9.43-1,59.62,59.62,0,0,1,8.36.35c4.1,0.48,8.23,2.51,12.36,3.22A80.64,80.64,0,0,0,323.46,414.13Z" style="fill: rgb(51, 51, 51); opacity: 1;" transform="matrix(1, 0, 0, 1, 0, 0)"/><path class="cls-1" d="M503.08,429.7a0.55,0.55,0,0,0,0,1.09,136.92,136.92,0,0,1,25.78,5.09c3.39,1,6.67,2.19,9.94,3.44a3.19,3.19,0,0,0-.87-0.79,23.7,23.7,0,0,0-4.26-1.79,8.38,8.38,0,0,0,2.62-1.95C525.48,431.66,514.17,429.48,503.08,429.7Z" style="fill: rgb(51, 51, 51); opacity: 1;" transform="matrix(1, 0, 0, 1, 0, 0)"/><path class="cls-1" d="M523.15,390.14c-2.39.22-6.21,1.27-8.41,0a0.45,0.45,0,0,0-.46.78c2.91,2,8.49,1,11.78.8,4.69-.25,9.31-0.95,13.94-1h0l-0.26-2.52c-1.94.12-3.89,0.34-5.9,0.64C530.28,389.38,526.73,389.81,523.15,390.14Z" style="fill: rgb(51, 51, 51); opacity: 1;" transform="matrix(1, 0, 0, 1, 0, 0)"/><path class="cls-1" d="M168.92,443.62c3.31-.41,6.64-0.83,10-0.94,3-.09,10.15-1.18,12.6.52a1,1,0,0,0,1.18-1.53c-3.07-2.46-8-1.55-11.77-1.58a122.63,122.63,0,0,0-20.45,2c-11.3,1.85-21.2,6.91-31.63,11,0,1,.08,1.93.12,2.89,5.58-2.31,11.13-4.72,16.75-7C153.16,446,160.95,444.6,168.92,443.62Z" style="fill: rgb(51, 51, 51); opacity: 1;" transform="matrix(1, 0, 0, 1, 0, 0)"/><path class="cls-1" d="M127.56,479.64c0,0.17,0,.35.08,0.53a6.5,6.5,0,0,0,2.13,3.72q2.85,0.94,5.63,2.06a41,41,0,0,0,7.71-.23c-3-1.41-6-2.86-9.06-4C131.91,481,129.74,480.28,127.56,479.64Z" style="fill: rgb(51, 51, 51); opacity: 1;" transform="matrix(1, 0, 0, 1, 0, 0)"/><path class="cls-1" d="M495.77,449.89c-3.31-1.39-6.82-2.06-10.09-3.54-3.81-1.72-7.56-4.34-11.41-5.77-13.23-4.93-30-1.56-42.41,3.93-16.52,7.29-31.72,19.43-49.92,22.59-5,.87-10,0.12-15-0.47-5.91-.7-11.86-0.94-17.75-1.8-8.62-1.26-16.88-2.88-25.61-3.13-5.34-.15-10.53-1.38-15.8-2.11-5.53-.76-11.1-1.18-16.61-2.09-11-1.82-22-3.54-32.93-5.45-10.13-1.76-19.92-4.47-30.15-5.77-4.86-.62-9.76-0.66-14.62-1.24-4.16-.5-8.22-2.07-12.38-2.16-0.45,0-.58.75-0.11,0.81,3.5,0.48,6.62,2.29,10.06,3.11,4.1,1,8.36,1.19,12.52,1.7,9.66,1.18,19,3.42,28.49,5.58,19.07,4.34,38.7,6.1,58,9.23,9.11,1.48,18.24,1.52,27.33,3,8.75,1.41,17.34,2.57,26.15,3.5,9.33,1,17.51,1.91,26.57-1.2,7.36-2.52,15.09-5.23,21.86-9.1,16-9.12,33.95-19.52,53.12-16.1a39.68,39.68,0,0,1,11.54,3.71A82,82,0,0,0,487.28,452c7.55,2.53,14.54,6.22,22,8.89,3.14,1.12,6.32,2.08,9.53,2.93,4.76-.09,9.53.16,14.29,0.21,1,0,1.91,0,2.87,0,0-.38,0-0.76-0.07-1.14-5.22-1-10.43-2.08-15.52-3.56C511.82,456.79,504,453.35,495.77,449.89Z" style="fill: rgb(51, 51, 51); opacity: 1;" transform="matrix(1, 0, 0, 1, 0, 0)"/><path class="cls-1" d="M208.54,481.92c-6.38-1-12.62-2.65-19-3.71-7.12-1.19-13.54-1.16-19.9-5-5-3-10.17-4.3-15.72-5.81s-9.87-1.24-15.6-.93c-2.42.13-4.74,0.14-7,.2a56.43,56.43,0,0,0,7.7-2.49c3.37-1.58,6.2-1.64,9.78-1.82s6.81-1.59,10.33-1.82c5.89-.39,12.15.69,18.07,0.9,6.65,0.23,13,2.67,19.56,3.52,5.69,0.74,11.62.07,17.34,0,6.4-.07,12.65,1.29,19,1.8,13.06,1.06,26.13,1.91,39.17,3.48,6.53,0.79,13,1.64,19.58,2.36,6.7,0.73,13.28.38,20,.63,13.28,0.49,26.4,2.78,39.74,2.52,12.46-.24,24.82.19,37.27,0.1,5.56,0,11.19-.77,16.76-1,5.09-.23,9.26-2.15,13.58-4.78,12.11-7.38,25-18.75,39.48-20.58,8.08-1,15.29,4,22.14,7.65,3.19,1.71,10.4,2.12,12.4,4.9a0.85,0.85,0,0,0,1.46-.85c-1.46-2.36-4.38-2.91-6.85-3.71-5.39-1.75-10-5.09-15.2-7.36-11.17-4.87-21-2-31.51,3.4-5.64,2.93-11,6.5-16.35,9.88-6.71,4.22-12.79,8.75-21.05,8.77-12.54,0-24.93,1.7-37.49.78-7.14-.52-14.31.24-21.47,0s-14.42-1.21-21.62-2c-14.29-1.48-28.49-1.24-42.79-3-6.81-.85-13.61-1.32-20.43-2-7.27-.73-14.16-2.12-21.49-2.29-6.42-.15-12.65-1.41-19-1.95-6.87-.58-13.8.6-20.67,0-7.27-.59-14.2-3.53-21.52-3.79-6.65-.24-14.1-1.63-20.71-0.56s-13.15,1.15-19.15,3.91a71.68,71.68,0,0,1-8.1,2.72c0,0.31,0,.62,0,0.93a38.36,38.36,0,0,1-.25,4.7c3.06-.2,6.1-0.13,9.34-0.34,2.61-.17,5.22-0.74,7.84-0.65,3.78,0.13,7.52,1.48,11.15,2.44,5.84,1.55,10.1,4.68,15.47,7,0.21,0.09.42,0.15,0.63,0.23,0.91,0,1.85,0,2.83,0,14.25,0.53,28.24,5.27,42.53,6.4,6,0.47,12,.65,17.94.72-2.48-.39-5-0.77-7.44-1.1C222.38,483.47,215.43,483,208.54,481.92Z" style="fill: rgb(51, 51, 51); opacity: 1;" transform="matrix(1, 0, 0, 1, 0, 0)"/><path class="cls-1" d="M518.84,463.79c-1.81,0-3.62.11-5.43,0.27a94.94,94.94,0,0,0-31.09,7.78c-1.79.83-3.55,1.73-5.28,2.68q1.95,0,3.9-.07l7.14,0a80.3,80.3,0,0,1,14.61-4.34c11-2.12,21.87-2,32.91-1.89A11.64,11.64,0,0,0,536,464c-1,0-1.92,0-2.87,0C528.38,463.95,523.61,463.7,518.84,463.79Z" style="fill: rgb(51, 51, 51); opacity: 1;" transform="matrix(1, 0, 0, 1, 0, 0)"/><path class="cls-1" d="M471.66,464.27c0.31-9.68-18.7-2-22.19,0-5.59,3.27-10.53,7.38-16,10.78-0.4.05-.8,0.11-1.2,0.19a23,23,0,0,0-4.07,1.23c6.59,0,13.17-.13,19.75-0.45,4.21-.2,8.41-0.47,12.61-0.72l0.81-.46C464.51,472.91,471.52,468.55,471.66,464.27ZM438,474.91c4-2.61,7.66-5.65,11.78-8.1,2.82-1.68,16.85-8.11,17.28-2.24,0.37,5.05-10.92,9.72-14.93,10.54C447.48,476.06,442.7,475.11,438,474.91Z" style="fill: rgb(51, 51, 51); opacity: 1;" transform="matrix(1, 0, 0, 1, 0, 0)"/><path class="cls-1" d="M538.06,376.72c-1.53-6.91.47-13.93-.38-20.89-0.64-5.22-2-9.82-1.91-15.19,0.07-3.69,1.25-9.16-1.13-12.42-1.46-2-3.55-2.28-5.86-2.29-5.3,0-10-1.32-15.18-1.81-12-1.14-24.43,1.38-36.41,2-6.55.36-12.94,1.4-19.51,1.68-6,.25-11.85,2.07-17.77,3.15-13,2.37-27.4.77-40.57,0.67-7.41-.06-15.11-0.65-22.46.28-2.63.33-6.92,2.13-9.49,1.39-1-.29-1.76-1.59-3.14-1.76-8.57-1-6.74,9-9.08,14.05-2.06-4.44-2-10.32-7.31-12.3-6.5-2.41-16.69,1-23.16,2.16-5,.89-10.77,2.88-15.87,1.73-3.87-.87-7.15-3.3-10.58-5.17-7.34-4-14.69-4.16-22.89-3.83a68.19,68.19,0,0,0-11.41,1.47c-5,1-9.7.15-14.73,0.55-4.41.35-8.49,2-13,1.91-4.83,0-9.72,0-14.54-.19a26.63,26.63,0,0,1-7.37-1c-1.43-.46-2.92-1.47-4.43-1.67a5.38,5.38,0,0,0-4.94,1.79c-2.45,2.5-3.18,5.81-3.7,9.22-0.56-5.26-2-10.07-6.9-10.9a6.81,6.81,0,0,0-3.91.41,2.52,2.52,0,0,0-1.6-1.32,12.82,12.82,0,0,0-5.82-.14,2.48,2.48,0,0,0-1.16.26q-6.09,3-12.22,5.95a71.44,71.44,0,0,0-7.19-1.06c-4.93-.35-14.33-2-19.56,1.11-3.61.92-6.53,3.11-7.21,7.51-0.62,4,.29,8.25.42,12.29a129,129,0,0,1-1.22,22.09c-0.83,6.1-.41,12.13-1.59,18.18a145,145,0,0,0-2.61,17.74c-0.36,5.54.21,11.21,0.41,16.76,0.22,6.24-2.41,12-2.41,18.31,0,5.82.53,11.63,0.57,17.46a38.22,38.22,0,0,1-1,9.1c-0.47,2.07-1,4-.6,6.13,1.67,8,12.61,5.68,18.42,5.29a36.56,36.56,0,0,0,12.31-3.38c6.23-2.7,11.06-4,17.88-3.73,14.25,0.53,28.24,5.27,42.53,6.4,7.79,0.62,15.61.74,23.42,0.76,3.43,0,6.91-.27,10.33-0.19s6.35,1.46,9.63,1.87a3.35,3.35,0,0,0,3-1.69c2.83-4.69,6.45-8.72,8.68-13.56,1.05,1.85,2,4.38,2.52,5.14a15.56,15.56,0,0,0,7.9,6.36c3.26,1,6.88.64,10.24,0.61,5.52,0,11,.23,16.55.25,22.81,0.09,45-7.57,67.9-8s46,0.86,69-.26c11-.53,22-1.46,33-1.57s21.17,0.2,31.91-2.23a52.87,52.87,0,0,1,16.8-1.12c2.1,0.17,4,.3,5.35-1.66,1.74-2.56.78-6.93,0.69-9.74-0.1-3.21-.43-6.72.19-9.89,0.52-2.66,2-4.69,3.12-7.15a3.1,3.1,0,0,0-1.08-4.11,23.7,23.7,0,0,0-4.26-1.79,8.17,8.17,0,0,0,2.84-2.19c2.47-3.09,1.47-8.63,2.32-12.29,1-4.46,2.59-8.74,2.9-13.34,0.41-6.15-1.09-12.12-1.73-18.19A119.52,119.52,0,0,0,538.06,376.72ZM181.62,335l-0.05,0a1.78,1.78,0,0,1-.45-0.17c0-.13.08-0.23,0.1-0.27l0.08-.12,2.88-1.64a7.17,7.17,0,0,1,1.66.2,11,11,0,0,1-3.34,1.79C182.21,334.81,181.92,334.88,181.62,335ZM535.68,407.9c-0.28,5.62-2.59,10.81-3.49,16.32-0.25,1.55.21,4.76-.48,6.13s-4.52,1.86-6.23,2.24-3.09,3-1.87,4.6c2.53,3.28,5.54,3.89,8.8,5.29a20,20,0,0,0-2.36,5.95c-0.75,4.35-.23,9,0,13.35a20.55,20.55,0,0,1,.15,3.57c-0.85.27-3.11-.53-4-0.61-4.65-.38-9.31.51-13.85,1.46-11.33,2.38-22.14,1.92-33.67,2.05-10.63.12-21.24,1-31.86,1.38-21.44.85-42.93-.13-64.38-0.25-10.93-.06-21.71,1.4-32.53,2.87-11.06,1.5-22.2,4.32-33.36,4.66-5.89.18-11.79-.17-17.68-0.29-4.08-.08-9.83,1.14-13.47-1-5.8-3.39-5.2-13.53-13.61-13.37a3.87,3.87,0,0,0-3.67,2.8c-1.15,5.51-4.63,10.21-7.64,15a41.9,41.9,0,0,0-5.3-1.35,49,49,0,0,0-7,.11c-6.26.17-12.57,0-18.83-.16A212.91,212.91,0,0,1,192.15,474c-9.09-1.91-19.38-4-28.51-1.2-4.06,1.25-7.77,3.4-11.78,4.75s-8.82,1.5-13.21,1.64c-5.88.19-3.19-4.85-2.79-8.79,0.62-6.1,0-12.41-.23-18.52-0.23-5.87.72-10.5,1.93-16.12,1.06-4.9.31-10.35,0.21-15.34-0.23-11,3.31-21.3,3.85-32.16,0.17-3.37.43-6.71,0.71-10.05a1,1,0,0,0,.29-0.69c0.07-1.67.13-3.35,0.19-5a159.92,159.92,0,0,0,.67-17.75c0.14-3.07.29-6.14,0.5-9.2a14.3,14.3,0,0,1,.72-4,3.72,3.72,0,0,1,.63-0.3c4.69-1.66,8.82,1.42,13,2.69,3.85,1.17,7.08-.48,10.41-2.38l2.22-1.27c6,0.92,12.3,1.51,17.49-2.15,1.33-.94,3.67-4,5.58-2.75,1.18,0.8,1.21,5.36,1.3,6.42,0.37,4.31.26,8.48,1.56,12.65,0.58,1.86,3.34,3,4.76,1.26,4.42-5.49,3.74-11.53,5.7-17.94,1.46-4.77,3.94-2.17,7.54-1.39s7.3,0.57,10.95.46c4.48-.14,9.07.42,13.52,0,4-.38,7.76-2,11.84-2.07,3.49-.1,6.94.42,10.43,0,4.33-.53,8.31-1.72,12.73-1.89,9.12-.34,16.24.19,24.24,4.8,5.3,3.05,10.2,5.27,16.46,4.49,8.74-1.09,17.33-3.17,26.12-3.92,2.28-.2,4.52-0.6,6.35,1.47,1,1.1,1.19,3.3,1.63,4.71a18.7,18.7,0,0,0,3.83,7.44,2.66,2.66,0,0,0,3.21.41,9.7,9.7,0,0,0,3.89-5.33c0.75-2.27.36-7.18,2.08-8.93,1.93-2,.85,0,2.69.23s2.39,0.8,4.29.63c5.58-.49,10.85-2,16.59-2.07,11.85-.07,23.71-0.07,35.56-0.06,5.34,0,10.77.38,16.08-.26,5.49-.67,10.79-2.3,16.25-3.07,4.91-.69,9.84-0.08,14.75-0.83,6.13-.94,12.15-1,18.3-1.62,11-1.07,21.91-2.23,32.79.18a28,28,0,0,0,5.08.73c0.77,0,4.08-.59,4.72-0.17,2.31,1.51.41,11.61,0.59,14.23,0.32,4.7,2,9.11,2,13.83,0.06,5.25-.87,10.46-0.16,15.7C533.16,386,536.21,397.15,535.68,407.9Z" style="fill: rgb(51, 51, 51); opacity: 1;" transform="matrix(1, 0, 0, 1, 0, 0)"/></g></g></svg>